<svg width="300" height="300" viewBox="0 0 300 300" fill="none" xmlns="http://www.w3.org/2000/svg">
  <!-- Watercolor-style floral corner decoration - Top Right (mirrored) -->
  
  <!-- Background watercolor blobs -->
  <ellipse cx="220" cy="80" rx="90" ry="85" fill="#E8B4A0" opacity="0.15"/>
  <ellipse cx="180" cy="100" rx="70" ry="75" fill="#D4A89A" opacity="0.12"/>
  
  <!-- Eucalyptus leaves -->
  <ellipse cx="255" cy="120" rx="8" ry="20" fill="#8B9D83" opacity="0.6" transform="rotate(25 255 120)"/>
  <ellipse cx="245" cy="135" rx="7" ry="18" fill="#8B9D83" opacity="0.5" transform="rotate(30 245 135)"/>
  <ellipse cx="235" cy="148" rx="6" ry="16" fill="#8B9D83" opacity="0.55" transform="rotate(35 235 148)"/>
  <ellipse cx="262" cy="105" rx="7" ry="19" fill="#8B9D83" opacity="0.5" transform="rotate(20 262 105)"/>
  
  <!-- Pampas grass stems -->
  <path d="M 120 40 Q 125 60 130 80 Q 132 95 135 110" stroke="#C4B5A0" stroke-width="2" fill="none" opacity="0.4"/>
  <path d="M 110 35 Q 112 55 115 75 Q 117 90 120 105" stroke="#C4B5A0" stroke-width="2" fill="none" opacity="0.35"/>
  
  <!-- Pampas grass plumes -->
  <ellipse cx="120" cy="35" rx="12" ry="25" fill="#E8DDD0" opacity="0.7" transform="rotate(15 120 35)"/>
  <ellipse cx="110" cy="30" rx="10" ry="22" fill="#E8DDD0" opacity="0.65" transform="rotate(10 110 30)"/>
  <ellipse cx="125" cy="40" rx="11" ry="23" fill="#E8DDD0" opacity="0.6" transform="rotate(20 125 40)"/>
  
  <!-- Rose 1 - Main focal flower -->
  <circle cx="200" cy="90" r="25" fill="#E8B4A0" opacity="0.3"/>
  <circle cx="200" cy="90" r="20" fill="#E8B4A0" opacity="0.4"/>
  <circle cx="200" cy="90" r="15" fill="#D4A89A" opacity="0.5"/>
  <circle cx="200" cy="90" r="10" fill="#D4A89A" opacity="0.6"/>
  <circle cx="200" cy="90" r="6" fill="#C99A8C" opacity="0.7"/>
  
  <!-- Rose petals detail -->
  <path d="M 200 90 Q 215 85 220 95 Q 215 105 200 100 Z" fill="#E8B4A0" opacity="0.4"/>
  <path d="M 200 90 Q 185 85 180 95 Q 185 105 200 100 Z" fill="#E8B4A0" opacity="0.35"/>
  <path d="M 200 90 Q 205 75 195 70 Q 185 75 190 90 Z" fill="#D4A89A" opacity="0.4"/>
  
  <!-- Rose 2 - Smaller accent -->
  <circle cx="150" cy="120" r="18" fill="#D4A89A" opacity="0.3"/>
  <circle cx="150" cy="120" r="14" fill="#D4A89A" opacity="0.4"/>
  <circle cx="150" cy="120" r="10" fill="#C99A8C" opacity="0.5"/>
  <circle cx="150" cy="120" r="6" fill="#C99A8C" opacity="0.6"/>
  
  <!-- Small buds -->
  <circle cx="230" cy="60" r="8" fill="#E8B4A0" opacity="0.5"/>
  <circle cx="230" cy="60" r="5" fill="#D4A89A" opacity="0.6"/>
  <circle cx="170" cy="70" r="7" fill="#D4A89A" opacity="0.5"/>
  <circle cx="170" cy="70" r="4" fill="#C99A8C" opacity="0.6"/>
  
  <!-- Delicate stems -->
  <path d="M 200 115 Q 205 130 210 145" stroke="#8B9D83" stroke-width="1.5" fill="none" opacity="0.4"/>
  <path d="M 150 138 Q 152 150 155 165" stroke="#8B9D83" stroke-width="1.5" fill="none" opacity="0.4"/>
  
  <!-- Small leaves -->
  <ellipse cx="208" cy="130" rx="5" ry="10" fill="#8B9D83" opacity="0.5" transform="rotate(40 208 130)"/>
  <ellipse cx="153" cy="150" rx="4" ry="9" fill="#8B9D83" opacity="0.5" transform="rotate(35 153 150)"/>
  
  <!-- Tiny accent flowers -->
  <circle cx="240" cy="140" r="4" fill="#E8B4A0" opacity="0.6"/>
  <circle cx="240" cy="140" r="2" fill="#D4A89A" opacity="0.7"/>
  <circle cx="135" cy="95" r="4" fill="#D4A89A" opacity="0.6"/>
  <circle cx="135" cy="95" r="2" fill="#C99A8C" opacity="0.7"/>
</svg>
