<svg width="600" height="100" viewBox="0 0 600 100" fill="none" xmlns="http://www.w3.org/2000/svg">
  <!-- Horizontal floral divider for section breaks -->
  
  <!-- Center rose cluster -->
  <circle cx="300" cy="50" r="20" fill="#E8B4A0" opacity="0.3"/>
  <circle cx="300" cy="50" r="16" fill="#E8B4A0" opacity="0.4"/>
  <circle cx="300" cy="50" r="12" fill="#D4A89A" opacity="0.5"/>
  <circle cx="300" cy="50" r="8" fill="#D4A89A" opacity="0.6"/>
  <circle cx="300" cy="50" r="5" fill="#C99A8C" opacity="0.7"/>
  
  <!-- Center rose petals -->
  <path d="M 300 50 Q 285 45 280 55 Q 285 65 300 60 Z" fill="#E8B4A0" opacity="0.4"/>
  <path d="M 300 50 Q 315 45 320 55 Q 315 65 300 60 Z" fill="#E8B4A0" opacity="0.35"/>
  
  <!-- Left side flowers -->
  <circle cx="250" cy="55" r="12" fill="#D4A89A" opacity="0.4"/>
  <circle cx="250" cy="55" r="8" fill="#D4A89A" opacity="0.5"/>
  <circle cx="250" cy="55" r="5" fill="#C99A8C" opacity="0.6"/>
  
  <circle cx="220" cy="60" r="10" fill="#E8B4A0" opacity="0.4"/>
  <circle cx="220" cy="60" r="6" fill="#D4A89A" opacity="0.5"/>
  <circle cx="220" cy="60" r="4" fill="#C99A8C" opacity="0.6"/>
  
  <!-- Right side flowers -->
  <circle cx="350" cy="55" r="12" fill="#D4A89A" opacity="0.4"/>
  <circle cx="350" cy="55" r="8" fill="#D4A89A" opacity="0.5"/>
  <circle cx="350" cy="55" r="5" fill="#C99A8C" opacity="0.6"/>
  
  <circle cx="380" cy="60" r="10" fill="#E8B4A0" opacity="0.4"/>
  <circle cx="380" cy="60" r="6" fill="#D4A89A" opacity="0.5"/>
  <circle cx="380" cy="60" r="4" fill="#C99A8C" opacity="0.6"/>
  
  <!-- Eucalyptus leaves - left -->
  <ellipse cx="270" cy="45" rx="4" ry="12" fill="#8B9D83" opacity="0.5" transform="rotate(-30 270 45)"/>
  <ellipse cx="265" cy="50" rx="3" ry="10" fill="#8B9D83" opacity="0.5" transform="rotate(-35 265 50)"/>
  <ellipse cx="230" cy="50" rx="4" ry="11" fill="#8B9D83" opacity="0.5" transform="rotate(-25 230 50)"/>
  <ellipse cx="225" cy="55" rx="3" ry="9" fill="#8B9D83" opacity="0.5" transform="rotate(-30 225 55)"/>
  
  <!-- Eucalyptus leaves - right -->
  <ellipse cx="330" cy="45" rx="4" ry="12" fill="#8B9D83" opacity="0.5" transform="rotate(30 330 45)"/>
  <ellipse cx="335" cy="50" rx="3" ry="10" fill="#8B9D83" opacity="0.5" transform="rotate(35 335 50)"/>
  <ellipse cx="370" cy="50" rx="4" ry="11" fill="#8B9D83" opacity="0.5" transform="rotate(25 370 50)"/>
  <ellipse cx="375" cy="55" rx="3" ry="9" fill="#8B9D83" opacity="0.5" transform="rotate(30 375 55)"/>
  
  <!-- Delicate stems -->
  <path d="M 250 67 Q 248 75 245 82" stroke="#8B9D83" stroke-width="1" fill="none" opacity="0.4"/>
  <path d="M 350 67 Q 352 75 355 82" stroke="#8B9D83" stroke-width="1" fill="none" opacity="0.4"/>
  <path d="M 220 70 Q 218 77 215 84" stroke="#8B9D83" stroke-width="1" fill="none" opacity="0.4"/>
  <path d="M 380 70 Q 382 77 385 84" stroke="#8B9D83" stroke-width="1" fill="none" opacity="0.4"/>
  
  <!-- Small accent buds - far left -->
  <circle cx="190" cy="65" r="5" fill="#E8B4A0" opacity="0.5"/>
  <circle cx="190" cy="65" r="3" fill="#D4A89A" opacity="0.6"/>
  <circle cx="200" cy="68" r="4" fill="#D4A89A" opacity="0.5"/>
  <circle cx="200" cy="68" r="2" fill="#C99A8C" opacity="0.6"/>
  
  <!-- Small accent buds - far right -->
  <circle cx="410" cy="65" r="5" fill="#E8B4A0" opacity="0.5"/>
  <circle cx="410" cy="65" r="3" fill="#D4A89A" opacity="0.6"/>
  <circle cx="400" cy="68" r="4" fill="#D4A89A" opacity="0.5"/>
  <circle cx="400" cy="68" r="2" fill="#C99A8C" opacity="0.6"/>
  
  <!-- Tiny leaves - far edges -->
  <ellipse cx="195" cy="60" rx="3" ry="8" fill="#8B9D83" opacity="0.5" transform="rotate(-20 195 60)"/>
  <ellipse cx="405" cy="60" rx="3" ry="8" fill="#8B9D83" opacity="0.5" transform="rotate(20 405 60)"/>
  
  <!-- Watercolor background accents -->
  <ellipse cx="300" cy="50" rx="80" ry="30" fill="#E8B4A0" opacity="0.08"/>
  <ellipse cx="250" cy="55" rx="50" ry="25" fill="#D4A89A" opacity="0.06"/>
  <ellipse cx="350" cy="55" rx="50" ry="25" fill="#D4A89A" opacity="0.06"/>
</svg>
