<svg width="300" height="300" viewBox="0 0 300 300" fill="none" xmlns="http://www.w3.org/2000/svg">
  <!-- Watercolor-style floral corner decoration - Bottom Right -->
  
  <!-- Background watercolor blobs -->
  <ellipse cx="220" cy="220" rx="90" ry="85" fill="#E8B4A0" opacity="0.15"/>
  <ellipse cx="180" cy="200" rx="70" ry="75" fill="#D4A89A" opacity="0.12"/>
  
  <!-- Eucalyptus leaves -->
  <ellipse cx="255" cy="180" rx="8" ry="20" fill="#8B9D83" opacity="0.6" transform="rotate(-25 255 180)"/>
  <ellipse cx="245" cy="165" rx="7" ry="18" fill="#8B9D83" opacity="0.5" transform="rotate(-30 245 165)"/>
  <ellipse cx="235" cy="152" rx="6" ry="16" fill="#8B9D83" opacity="0.55" transform="rotate(-35 235 152)"/>
  <ellipse cx="262" cy="195" rx="7" ry="19" fill="#8B9D83" opacity="0.5" transform="rotate(-20 262 195)"/>
  
  <!-- Pampas grass stems -->
  <path d="M 120 260 Q 125 240 130 220 Q 132 205 135 190" stroke="#C4B5A0" stroke-width="2" fill="none" opacity="0.4"/>
  <path d="M 110 265 Q 112 245 115 225 Q 117 210 120 195" stroke="#C4B5A0" stroke-width="2" fill="none" opacity="0.35"/>
  
  <!-- Pampas grass plumes -->
  <ellipse cx="120" cy="265" rx="12" ry="25" fill="#E8DDD0" opacity="0.7" transform="rotate(-15 120 265)"/>
  <ellipse cx="110" cy="270" rx="10" ry="22" fill="#E8DDD0" opacity="0.65" transform="rotate(-10 110 270)"/>
  <ellipse cx="125" cy="260" rx="11" ry="23" fill="#E8DDD0" opacity="0.6" transform="rotate(-20 125 260)"/>
  
  <!-- Rose 1 - Main focal flower -->
  <circle cx="200" cy="210" r="25" fill="#E8B4A0" opacity="0.3"/>
  <circle cx="200" cy="210" r="20" fill="#E8B4A0" opacity="0.4"/>
  <circle cx="200" cy="210" r="15" fill="#D4A89A" opacity="0.5"/>
  <circle cx="200" cy="210" r="10" fill="#D4A89A" opacity="0.6"/>
  <circle cx="200" cy="210" r="6" fill="#C99A8C" opacity="0.7"/>
  
  <!-- Rose petals detail -->
  <path d="M 200 210 Q 215 215 220 205 Q 215 195 200 200 Z" fill="#E8B4A0" opacity="0.4"/>
  <path d="M 200 210 Q 185 215 180 205 Q 185 195 200 200 Z" fill="#E8B4A0" opacity="0.35"/>
  <path d="M 200 210 Q 205 225 195 230 Q 185 225 190 210 Z" fill="#D4A89A" opacity="0.4"/>
  
  <!-- Rose 2 - Smaller accent -->
  <circle cx="150" cy="180" r="18" fill="#D4A89A" opacity="0.3"/>
  <circle cx="150" cy="180" r="14" fill="#D4A89A" opacity="0.4"/>
  <circle cx="150" cy="180" r="10" fill="#C99A8C" opacity="0.5"/>
  <circle cx="150" cy="180" r="6" fill="#C99A8C" opacity="0.6"/>
  
  <!-- Small buds -->
  <circle cx="230" cy="240" r="8" fill="#E8B4A0" opacity="0.5"/>
  <circle cx="230" cy="240" r="5" fill="#D4A89A" opacity="0.6"/>
  <circle cx="170" cy="230" r="7" fill="#D4A89A" opacity="0.5"/>
  <circle cx="170" cy="230" r="4" fill="#C99A8C" opacity="0.6"/>
  
  <!-- Delicate stems -->
  <path d="M 200 185 Q 205 170 210 155" stroke="#8B9D83" stroke-width="1.5" fill="none" opacity="0.4"/>
  <path d="M 150 162 Q 152 150 155 135" stroke="#8B9D83" stroke-width="1.5" fill="none" opacity="0.4"/>
  
  <!-- Small leaves -->
  <ellipse cx="208" cy="170" rx="5" ry="10" fill="#8B9D83" opacity="0.5" transform="rotate(-40 208 170)"/>
  <ellipse cx="153" cy="150" rx="4" ry="9" fill="#8B9D83" opacity="0.5" transform="rotate(-35 153 150)"/>
  
  <!-- Tiny accent flowers -->
  <circle cx="240" cy="160" r="4" fill="#E8B4A0" opacity="0.6"/>
  <circle cx="240" cy="160" r="2" fill="#D4A89A" opacity="0.7"/>
  <circle cx="135" cy="205" r="4" fill="#D4A89A" opacity="0.6"/>
  <circle cx="135" cy="205" r="2" fill="#C99A8C" opacity="0.7"/>
</svg>
