<svg width="300" height="300" viewBox="0 0 300 300" fill="none" xmlns="http://www.w3.org/2000/svg">
  <!-- Watercolor-style floral corner decoration - Bottom Left -->
  
  <!-- Background watercolor blobs -->
  <ellipse cx="80" cy="220" rx="90" ry="85" fill="#E8B4A0" opacity="0.15"/>
  <ellipse cx="120" cy="200" rx="70" ry="75" fill="#D4A89A" opacity="0.12"/>
  
  <!-- Eucalyptus leaves -->
  <ellipse cx="45" cy="180" rx="8" ry="20" fill="#8B9D83" opacity="0.6" transform="rotate(25 45 180)"/>
  <ellipse cx="55" cy="165" rx="7" ry="18" fill="#8B9D83" opacity="0.5" transform="rotate(30 55 165)"/>
  <ellipse cx="65" cy="152" rx="6" ry="16" fill="#8B9D83" opacity="0.55" transform="rotate(35 65 152)"/>
  <ellipse cx="38" cy="195" rx="7" ry="19" fill="#8B9D83" opacity="0.5" transform="rotate(20 38 195)"/>
  
  <!-- Pampas grass stems -->
  <path d="M 180 260 Q 175 240 170 220 Q 168 205 165 190" stroke="#C4B5A0" stroke-width="2" fill="none" opacity="0.4"/>
  <path d="M 190 265 Q 188 245 185 225 Q 183 210 180 195" stroke="#C4B5A0" stroke-width="2" fill="none" opacity="0.35"/>
  
  <!-- Pampas grass plumes -->
  <ellipse cx="180" cy="265" rx="12" ry="25" fill="#E8DDD0" opacity="0.7" transform="rotate(15 180 265)"/>
  <ellipse cx="190" cy="270" rx="10" ry="22" fill="#E8DDD0" opacity="0.65" transform="rotate(10 190 270)"/>
  <ellipse cx="175" cy="260" rx="11" ry="23" fill="#E8DDD0" opacity="0.6" transform="rotate(20 175 260)"/>
  
  <!-- Rose 1 - Main focal flower -->
  <circle cx="100" cy="210" r="25" fill="#E8B4A0" opacity="0.3"/>
  <circle cx="100" cy="210" r="20" fill="#E8B4A0" opacity="0.4"/>
  <circle cx="100" cy="210" r="15" fill="#D4A89A" opacity="0.5"/>
  <circle cx="100" cy="210" r="10" fill="#D4A89A" opacity="0.6"/>
  <circle cx="100" cy="210" r="6" fill="#C99A8C" opacity="0.7"/>
  
  <!-- Rose petals detail -->
  <path d="M 100 210 Q 85 215 80 205 Q 85 195 100 200 Z" fill="#E8B4A0" opacity="0.4"/>
  <path d="M 100 210 Q 115 215 120 205 Q 115 195 100 200 Z" fill="#E8B4A0" opacity="0.35"/>
  <path d="M 100 210 Q 95 225 105 230 Q 115 225 110 210 Z" fill="#D4A89A" opacity="0.4"/>
  
  <!-- Rose 2 - Smaller accent -->
  <circle cx="150" cy="180" r="18" fill="#D4A89A" opacity="0.3"/>
  <circle cx="150" cy="180" r="14" fill="#D4A89A" opacity="0.4"/>
  <circle cx="150" cy="180" r="10" fill="#C99A8C" opacity="0.5"/>
  <circle cx="150" cy="180" r="6" fill="#C99A8C" opacity="0.6"/>
  
  <!-- Small buds -->
  <circle cx="70" cy="240" r="8" fill="#E8B4A0" opacity="0.5"/>
  <circle cx="70" cy="240" r="5" fill="#D4A89A" opacity="0.6"/>
  <circle cx="130" cy="230" r="7" fill="#D4A89A" opacity="0.5"/>
  <circle cx="130" cy="230" r="4" fill="#C99A8C" opacity="0.6"/>
  
  <!-- Delicate stems -->
  <path d="M 100 185 Q 95 170 90 155" stroke="#8B9D83" stroke-width="1.5" fill="none" opacity="0.4"/>
  <path d="M 150 162 Q 148 150 145 135" stroke="#8B9D83" stroke-width="1.5" fill="none" opacity="0.4"/>
  
  <!-- Small leaves -->
  <ellipse cx="92" cy="170" rx="5" ry="10" fill="#8B9D83" opacity="0.5" transform="rotate(40 92 170)"/>
  <ellipse cx="147" cy="150" rx="4" ry="9" fill="#8B9D83" opacity="0.5" transform="rotate(35 147 150)"/>
  
  <!-- Tiny accent flowers -->
  <circle cx="60" cy="160" r="4" fill="#E8B4A0" opacity="0.6"/>
  <circle cx="60" cy="160" r="2" fill="#D4A89A" opacity="0.7"/>
  <circle cx="165" cy="205" r="4" fill="#D4A89A" opacity="0.6"/>
  <circle cx="165" cy="205" r="2" fill="#C99A8C" opacity="0.7"/>
</svg>
