<svg width="1920" height="1080" viewBox="0 0 1920 1080" fill="none" xmlns="http://www.w3.org/2000/svg">
  <!-- Subtle watercolor texture overlay - Peachy tones -->
  
  <!-- Large soft blobs -->
  <ellipse cx="300" cy="200" rx="400" ry="350" fill="#E8B4A0" opacity="0.04"/>
  <ellipse cx="1600" cy="300" rx="450" ry="380" fill="#D4A89A" opacity="0.05"/>
  <ellipse cx="800" cy="600" rx="500" ry="420" fill="#F0E8E0" opacity="0.06"/>
  <ellipse cx="1200" cy="800" rx="380" ry="350" fill="#E8B4A0" opacity="0.04"/>
  <ellipse cx="400" cy="900" rx="420" ry="360" fill="#D4A89A" opacity="0.05"/>
  
  <!-- Medium organic shapes -->
  <ellipse cx="600" cy="150" rx="250" ry="220" fill="#E8B4A0" opacity="0.03"/>
  <ellipse cx="1400" cy="500" rx="280" ry="240" fill="#F0E8E0" opacity="0.04"/>
  <ellipse cx="200" cy="700" rx="230" ry="200" fill="#D4A89A" opacity="0.03"/>
  <ellipse cx="1700" cy="850" rx="260" ry="230" fill="#E8B4A0" opacity="0.04"/>
  
  <!-- Small accent blobs -->
  <ellipse cx="950" cy="250" rx="150" ry="130" fill="#D4A89A" opacity="0.03"/>
  <ellipse cx="1100" cy="450" rx="140" ry="120" fill="#E8B4A0" opacity="0.03"/>
  <ellipse cx="500" cy="550" rx="160" ry="140" fill="#F0E8E0" opacity="0.04"/>
  <ellipse cx="1500" cy="700" rx="145" ry="125" fill="#D4A89A" opacity="0.03"/>
  
  <!-- Tiny scattered accents -->
  <circle cx="750" cy="400" r="80" fill="#E8B4A0" opacity="0.02"/>
  <circle cx="1300" cy="200" r="70" fill="#D4A89A" opacity="0.02"/>
  <circle cx="350" cy="450" r="75" fill="#F0E8E0" opacity="0.03"/>
  <circle cx="1650" cy="600" r="65" fill="#E8B4A0" opacity="0.02"/>
  <circle cx="850" cy="950" r="70" fill="#D4A89A" opacity="0.02"/>
</svg>
